<?xml version="1.0" standalone="no"?>
<!DOCTYPE svg PUBLIC "-//W3C//DTD SVG 1.1//EN" "http://www.w3.org/Graphics/SVG/1.1/DTD/svg11.dtd" >
<svg>
<metadata>
Created by FontForge 20090622 at Thu Dec 24 09:43:53 2015
 By deploy user
</metadata>
<defs>
<font id="PentaGramsAurra" horiz-adv-x="502" >
  <font-face 
    font-family="PentaGram’s Aurra"
    font-weight="500"
    font-stretch="normal"
    units-per-em="1000"
    panose-1="2 0 6 3 0 0 0 0 0 0"
    ascent="800"
    descent="-200"
    x-height="290"
    cap-height="531.5"
    bbox="-168.8 -177.022 797.042 674"
    underline-thickness="50"
    underline-position="-100"
    unicode-range="U+0020-U+20AC"
  />
<missing-glyph horiz-adv-x="364" 
d="M33 0v666h265v-666h-265zM66 33h199v600h-199v-600z" />
    <glyph glyph-name=".notdef" horiz-adv-x="364" 
d="M33 0v666h265v-666h-265zM66 33h199v600h-199v-600z" />
    <glyph glyph-name="NULL" horiz-adv-x="0" 
 />
    <glyph glyph-name="nonmarkingreturn" horiz-adv-x="333" 
 />
    <glyph glyph-name="space" unicode=" " horiz-adv-x="199" 
 />
    <glyph glyph-name="exclam" unicode="!" horiz-adv-x="199" 
d="M102 627q71 -3 81 -10q9 -6 9 -12t-4.5 -10.5t-9.5 -15t-5 -22.5q0 -17 -7 -36q-12 -29 -26 -314l-4 -87l-35 -6q-36 -6 -45 2t-10 35t4 69t11.5 87t12 100t5.5 97v55l-1 1l6 67h18zM69 46q18 9 23 10q3 0 27.5 -33.5t24.5 -38.5q0 -7 -13 -18t-22 -11q-14 0 -33.5 11.5
t-25.5 23.5q-8 15 -2.5 31t21.5 25z" />
    <glyph glyph-name="numbersign" unicode="#" horiz-adv-x="427" 
d="M94 148q0 4 1 8q5 35 10 78v7q-12 0 -24 -1l-68 -3l-7 27q-7 28 -2 35q6 8 27 10.5t54 1.5q12 0 24 -1v43h-1l5 53l14 -1q55 -2 63 -7q7 -5 7 -9.5t-3.5 -8t-7.5 -12t-4 -17.5q0 -13 -5 -28q-2 -4 -4 -15q27 -1 59 -1q22 -1 41 0v48l-1 1l5 52h13q56 -2 64 -8q7 -4 7 -9
t-3.5 -8.5t-7.5 -11.5t-4 -18q0 -13 -5 -28q-2 -4 -3 -13l12 1l1 1h52l1 -14q3 -56 -1 -64q-5 -7 -9.5 -7.5t-8 2.5t-12.5 6t-18 3q-12 -2 -25 1l-7 -95h2l42 4l1 1h53v-14q4 -56 -1 -64q-4 -7 -9 -7.5t-8.5 2.5t-12 6t-18.5 3q-13 -2 -28 3q-6 2 -24 2v-2l-3 -68l-27 -4
q-28 -5 -35 1q-7 7 -8 28q-1 18 2 45q-38 0 -92 -3v-1l-4 -68l-27 -5q-28 -4 -35 2t-8 27q-1 17 2 42l-55 -2l-7 27q-7 28 -2 35q6 8 27 11q18 2 46 1zM166 243q-3 -39 -6 -97h11q35 -2 78 -2q4 -1 8 -1q1 8 2 15q5 35 10 78v10q-39 0 -103 -3z" />
    <glyph glyph-name="dollar" unicode="$" horiz-adv-x="432" 
d="M148 388q2 53 2 96q-3 -8 -6 -17q-10 -32 -6 -52q2 -13 10 -27zM291 99q9 13 20 31q26 44 21 59q-4 12 -38 41q-2 -60 -3 -131zM142 263q-5 1 -8 2q-13 2 -31 16q-20 15 -41.5 55t-21.5 61q0 47 43 101q36 45 67 61v16l-1 2l4 97l11 -1q46 -3 52 -13q6 -9 6 -18t-3 -15.5
t-6 -21.5t-3 -32v-4q18 1 41 0v6l-1 2l4 97l11 -1q46 -3 52 -13q6 -9 6 -18t-3 -15.5t-6 -21.5t-3 -32v-5h24l28 -27q26 -26 35.5 -44.5t13.5 -56.5q4 -37 -5 -47t-48 -11q-25 -1 -33.5 1.5t-17.5 13.5q-5 7 -8 16q-2 -37 -3 -86q18 -6 32 -13q31 -16 66 -55q24 -26 29 -37
t5 -32q0 -33 -16 -66.5t-35 -39.5q-9 -3 -41 -22q-27 -16 -48 -21l-2 -102l-22 -9q-23 -8 -29 3q-5 12 -6 51q-1 21 0 49l-39 -5q0 -1 -2 -1h-1l-2 -88l-22 -9q-23 -8 -29 3q-5 12 -6 51v40q-21 2 -39 8q-19 7 -39 25.5t-31 46.5q-7 18 5 50q7 20 15 29t27 18q30 15 42 15
q13 0 16 -11t-7 -22q-11 -11 -7 -26q3 -15 22 -43l6 96q2 26 3 53zM243 262h-49q-3 -84 -5 -194l8 -2q18 -5 34 -4l2 22q3 61 7 126q2 25 3 52zM196 349q16 -4 46 -9q2 0 5 -1q0 8 1 16q3 80 3 141v30q-9 6 -19 9q-12 3 -25 0q-1 -7 -2 -15q-4 -24 -9 -171z" />
    <glyph glyph-name="percent" unicode="%" horiz-adv-x="334" 
d="M247 629q70 -3 78 -10q6 -6 4 -12t-8.5 -10.5t-15.5 -15t-14 -22.5q-6 -17 -21 -36q-23 -29 -148 -314l-38 -87l-37 -6q-38 -6 -44 2t3.5 35t31 69l45.5 87t50.5 100t43.5 97l21 55l-1 1l32 67h18zM54 600q5 2 37 1q26 -2 36 -6t27 -20q7 -7 8 -13.5t-3 -28.5
q-2 -9 -18 -23t-25 -14q-6 0 -20 -7q-21 -10 -47.5 -7.5t-38.5 15.5q-11 12 -10.5 28.5t8.5 32t20.5 27.5t25.5 15zM121 553q-10 9 -27.5 17t-24.5 8q-9 0 -16 -5t-9.5 -13t-2 -16.5t7.5 -17t19 -14.5q27 -12 48 -1q18 10 14 27q-2 8 -9 15zM226 314q5 2 37 1q26 -2 36 -6
t27 -20q7 -7 8 -13.5t-3 -28.5q-2 -9 -18 -23t-25 -14q-6 0 -20 -7q-21 -10 -47.5 -7.5t-38.5 15.5q-11 12 -10.5 28.5t8.5 32t20.5 27.5t25.5 15zM293 267q-10 9 -27.5 17t-24.5 8q-9 0 -16 -5t-9.5 -13t-2 -16.5t7.5 -17t19 -14.5q27 -12 48 -1q18 10 14 27q-2 8 -9 15z
" />
    <glyph glyph-name="quotesingle" unicode="'" horiz-adv-x="97" 
d="M26 634q57 38 73 -38q8 -39 -43 -85q-33 -30 -50 -25q-10 3 5 24q11 14 10 37.5t-13.5 36.5t-8.5 24t27 26z" />
    <glyph glyph-name="asterisk" unicode="*" horiz-adv-x="285" 
d="M90 468h-9q-32 0 -50 -8q-12 -5 -17 -5.5t-10 3.5q-18 14 36 35q16 6 42 14q9 2 17 4q-3 5 -7 10q-20 25 -38 34q-11 6 -14.5 10t-3.5 10q0 23 49 -6q16 -9 37 -24l1 -1l2 6q10 26 10 47q1 23 8 28q6 4 11 -3t20 -40q6 -13 9 -25q13 11 21 22q15 18 23 18q8 -1 7.5 -10
t-7.5 -43q-4 -22 -14 -36q23 -5 41 -2q23 2 29 -4q4 -6 -2 -12t-37 -25q-21 -13 -41 -16q12 -24 27 -39q16 -16 15 -24q-2 -8 -10.5 -6.5t-42.5 12.5q-28 10 -42 26q-1 0 -1 1q-5 -31 1 -49q3 -12 3 -17.5t-5 -9.5q-16 -15 -29 40q-4 18 -8 44v3h-1q-23 -23 -30 -42
q-4 -12 -7.5 -16t-9.5 -5q-22 -2 0 50q7 16 20 40q3 6 7 11z" />
    <glyph glyph-name="plus" unicode="+" horiz-adv-x="358" 
d="M136 184q-16 2 -33 3q-41 0 -64 -11q-15 -7 -21.5 -7.5t-12.5 4.5q-22 19 45 46q21 9 53 19q18 5 33 8q3 19 9 42q8 34 4 60q-3 29 5 36q8 6 16 -2t33 -46q21 -31 23 -58q0 -13 -3 -29q17 -3 37 -7q34 -9 60 -5q29 3 36 -5q6 -8 -2 -16t-46 -33q-31 -21 -58 -22
q-20 -2 -48 6q-2 -18 -2 -36q-1 -41 10 -64q7 -15 7.5 -21.5t-4.5 -12.5q-19 -22 -46 45q-9 21 -19 53q-8 31 -12 53z" />
    <glyph glyph-name="comma" unicode="," horiz-adv-x="122" 
d="M50 129q57 38 73 -38q8 -39 -43 -85q-33 -30 -50 -25q-10 3 5 24q11 14 10 37.5t-13.5 36.5t-8.5 24t27 26z" />
    <glyph glyph-name="hyphen" unicode="-" horiz-adv-x="358" 
d="M114 240q67 18 94.5 15t62 -11.5t60.5 -4.5q29 3 36 -5q6 -8 -2 -16t-46 -33q-31 -21 -58.5 -22.5t-70.5 13.5q-36 12 -76.5 12.5t-63.5 -10.5q-15 -7 -21.5 -7.5t-12.5 4.5q-22 19 45 46q21 9 53 19z" />
    <glyph glyph-name="period" unicode="." horiz-adv-x="119" 
d="M41 112q18 9 23 10q3 0 27.5 -33.5t24.5 -38.5q0 -7 -13 -18t-22 -11q-14 0 -33.5 11.5t-25.5 23.5q-8 15 -2.5 31t21.5 25z" />
    <glyph glyph-name="slash" unicode="/" horiz-adv-x="334" 
d="M247 629q70 -3 78 -10q6 -6 4 -12t-8.5 -10.5t-15.5 -15t-14 -22.5q-6 -17 -21 -36q-23 -29 -148 -314l-38 -87l-37 -6q-38 -6 -44 2t3.5 35t31 69l45.5 87t50.5 100t43.5 97l21 55l-1 1l32 67h18z" />
    <glyph glyph-name="colon" unicode=":" horiz-adv-x="119" 
d="M41 112q18 9 23 10q3 0 27.5 -33.5t24.5 -38.5q0 -7 -13 -18t-22 -11q-14 0 -33.5 11.5t-25.5 23.5q-8 15 -2.5 31t21.5 25zM38 311q18 9 23 10q3 0 27.5 -33.5t24.5 -38.5q0 -7 -13 -18t-22 -11q-14 0 -33.5 11.5t-25.5 23.5q-8 15 -2.5 31t21.5 25z" />
    <glyph glyph-name="semicolon" unicode=";" horiz-adv-x="122" 
d="M50 129q57 38 73 -38q8 -39 -43 -85q-33 -30 -50 -25q-10 3 5 24q11 14 10 37.5t-13.5 36.5t-8.5 24t27 26zM45 490q18 9 23 10q3 0 27.5 -33.5t24.5 -38.5q0 -7 -13 -18t-22 -11q-14 0 -33.5 11.5t-25.5 23.5q-8 15 -2.5 31t21.5 25z" />
    <glyph glyph-name="less" unicode="&#x3c;" horiz-adv-x="315" 
d="M5 149q-10 14 29 56q15 17 40 40q53 44 79 53t61 16.5t57 21.5q25 15 34 11q9 -5 5.5 -15.5t-27.5 -49.5q-19 -32 -43.5 -45t-69.5 -18q-38 -4 -74.5 -21t-52.5 -37q-2 -3 -5 -6q3 -2 6 -6q16 -17 52.5 -32t74.5 -19q45 -4 69.5 -15.5t43.5 -39.5q24 -35 27.5 -44.5
t-5.5 -13.5q-9 -3 -34 10q-22 13 -57 19t-61 14t-79 48q-25 20 -40 35q-25 24 -30 38z" />
    <glyph glyph-name="equal" unicode="=" horiz-adv-x="358" 
d="M104 127q63 18 88.5 15t57.5 -11.5t56 -4.5q27 3 33 -5t-1.5 -16t-42.5 -33q-29 -21 -54.5 -22.5t-65.5 13.5q-34 12 -71.5 12.5t-58.5 -10.5q-14 -7 -20 -7.5t-12 4.5q-20 19 42 46q20 9 49 19zM106 300q62 18 87.5 15t57.5 -11.5t57 -4.5q26 3 33 -5q6 -8 -1.5 -16
t-43.5 -33q-28 -21 -53.5 -22.5t-65.5 13.5q-34 12 -71.5 12.5t-58.5 -10.5q-14 -7 -20 -7.5t-12 4.5q-20 19 42 46q20 9 49 19z" />
    <glyph glyph-name="greater" unicode="&#x3e;" horiz-adv-x="298" 
d="M265 112q-14 -15 -38 -35q-50 -40 -74.5 -48t-57.5 -14t-54 -19q-23 -13 -32 -10q-8 4 -4.5 13.5t25.5 44.5q18 28 41 39.5t66 15.5q35 4 69.5 19t49.5 32q3 4 6 6q-2 3 -5 6q-15 20 -49.5 37t-69.5 21q-43 5 -66 18t-41 45q-22 39 -25.5 49.5t4.5 15.5q9 4 32 -11
q21 -14 54 -21.5t57.5 -16.5t74.5 -53q24 -23 38 -40q37 -42 27 -56q-4 -14 -28 -38z" />
    <glyph glyph-name="question" unicode="?" horiz-adv-x="271" 
d="M200 283l-2 -6l-7 -32l-6 -42t-4.5 -31.5t-2.5 -21t-4 -15.5t-7 -10q-10 -7 -20.5 3t-13.5 10q-4 0 -20 11q-10 9 -11 16t5 36l30 140l17 57q19 66 36 89q10 15 11.5 20.5t-1.5 12.5q-6 16 -36.5 28t-51.5 6q-14 -3 -44 -23l-29 -19l-27 7q-27 8 -34 9q-2 0 -2 1
q-15 7 41 44q20 14 31.5 21t26 10t22.5 2.5t25.5 -6t31.5 -12.5t44.5 -20l58.5 -24q23 -9 31.5 -16t4.5 -18t-12.5 -23.5t-22.5 -39t-23 -55.5l-14 -47l-20 -62h-1zM113 77q17 9 22 10q3 0 26.5 -33.5t23.5 -38.5q0 -7 -12.5 -18t-21.5 -11q-13 0 -32 11.5t-25 23.5
q-7 15 -2 31t21 25z" />
    <glyph glyph-name="A" unicode="A" horiz-adv-x="607" 
d="M229 551q38 14 68.5 8.5t89.5 -35.5q48 -25 69 -50q18 -22 29.5 -21t11.5 25q0 21 10 44q7 17 12.5 20t29.5 2l32 -2l-1 -78q0 -62 -12 -133.5t-13 -141.5q-1 -23 10 -42t22 -32t11 -22t-16.5 -23.5t-37 -25t-40 -9.5t-25.5 18q-4 11 -21 30t-23 19q-4 0 -13 -7t-25 -17
t-35 -16q-7 -2 -21.5 -7l-24 -8.5t-29.5 -7.5t-38.5 -3.5t-49.5 2.5q-30 3 -44.5 10t-46.5 32q-47 37 -47 43q0 7 -12 29.5t-24.5 65.5t-13.5 99q-1 71 58.5 135.5t159.5 98.5zM61 329q0 -30 7 -55.5t16 -38.5l16.5 -23t7.5 -13q0 -12 35.5 -37.5t51.5 -25.5q7 0 34 -13
q37 -18 66 -17.5t85 18.5q4 2 13 4q18 6 25 8.5t16.5 9.5t12 11t7 19.5t5.5 27t5 40.5q2 14 3 22q8 63 7.5 77t-9.5 27q-13 17 -30 19t-64 55l-47 52l-47 8q-46 7 -63.5 6t-42.5 -12q-47 -20 -78.5 -69t-31.5 -100z" />
    <glyph glyph-name="B" unicode="B" horiz-adv-x="490" 
d="M227 525q46 21 80 27.5t45 4t31 -9.5q30 -11 43 -20.5t37 -38.5q31 -38 27 -61.5t-43 -39.5q-31 -13 -31 -21.5t6 -8.5t31.5 -35.5t33.5 -55.5q10 -22 10 -60q0 -23 -4.5 -37t-18.5 -36q-40 -63 -121.5 -93t-147.5 -7q-24 9 -96 26q-15 4 -39 -7q-15 -7 -24.5 -7t-11 6.5
t5.5 18.5q23 36 27 62.5t4 144.5q0 119 -5.5 155t-25.5 46q-17 9 -12 22t30 27q29 17 40 16.5t32 -18.5q21 -19 38 -19t59 19zM330 498q-21 6 -33 5.5t-37 -6.5q-24 -7 -61 -40t-41 -52q-2 -14 -0.5 -28.5t7 -25t10.5 -8.5q2 0 18 3.5t31 7.5t20 8q10 9 48 19t60 10
q23 0 37 10t14 25q0 14 -26.5 40t-46.5 32zM346 305q-28 25 -44 28q-26 5 -117 -36l-32 -14l5 -52q3 -25 5 -56q1 -32 6.5 -40t36.5 -23q5 -3 8 -4q40 -20 80.5 -27.5t61.5 0.5q17 6 42 30q15 14 20 23.5t5 25.5q0 26 -25.5 74t-51.5 71z" />
    <glyph glyph-name="C" unicode="C" 
d="M258 519q20 5 84 3q46 -1 60.5 -4.5t45.5 -22.5q42 -26 45 -31q2 -3 -4 -7.5t-16 -9t-22 -9t-23.5 -7t-19.5 -2.5q-24 1 -61 18t-81.5 18t-69.5 -14q-27 -16 -62 -55.5t-40 -58.5q-7 -23 -7 -70.5t7 -70.5q6 -24 32 -51q42 -46 115 -56.5t136 20.5q40 20 59 33
q15 11 30 13t21 -7q4 -7 -33 -44t-62 -50q-23 -12 -99.5 -18.5t-108.5 0.5q-7 1 -21 4t-19 4t-15 5t-20 10t-24 17q-41 29 -56.5 61.5t-17 90.5t15.5 93.5t86 116.5q15 18 63.5 45t81.5 36z" />
    <glyph glyph-name="D" unicode="D" horiz-adv-x="602" 
d="M-27 661q32 15 81 2t147 -62q39 -20 61 -35t78 -61q41 -33 60.5 -55.5t52.5 -75.5q47 -74 50 -142t-40 -112q-37 -38 -70.5 -55.5t-94.5 -31.5q-24 -5 -84.5 -0.5t-68.5 12.5q-7 7 -22 7q-12 0 -45 34t-43 55q-24 53 -27.5 106t13.5 84q18 31 73 65.5t106 45.5
q39 9 39 -3t-39 -25q-29 -10 -60 -40q-24 -24 -32 -45t-8 -61q0 -33 39.5 -93.5t72.5 -77.5q22 -11 26 -18q3 -5 31.5 -7t65.5 5t55 27q11 11 13 24t2 55q0 44 -4.5 61.5t-25.5 61.5q-25 53 -38 69.5t-16 23.5q-3 9 -18 19.5l-39 26t-40 30.5q-24 23 -92 58.5t-110 46.5
l-67 19q-29 7 -33 12q-3 3 5 13t21.5 21t24.5 16z" />
    <glyph glyph-name="E" unicode="E" horiz-adv-x="491" 
d="M182 521q21 7 46.5 6t35.5 -8q5 -4 43 -6.5t58 -10.5q25 -11 35 -11q9 0 35.5 -20.5t26.5 -27.5t17 -40q11 -22 13 -34.5t-1 -36.5q-2 -24 -6.5 -32.5t-18.5 -16.5q-34 -21 -75.5 -28.5t-126.5 -6.5q-107 0 -131 3q-16 1 -20 -2t-5 -19q-4 -33 15.5 -58.5t68.5 -55.5
q81 -48 196 -33q18 2 18 -7t-19 -19q-31 -17 -59.5 -25.5t-55.5 -8t-44 3t-44.5 9.5t-38.5 9q-19 4 -63.5 44t-56.5 63q-13 27 -14 104q-1 65 6 97t28 65q17 26 61.5 59.5t75.5 43.5zM302 466q-68 30 -128 3t-75 -94q-8 -37 -4 -47q10 -27 189 -27l115 -1l2 29
q3 41 -24 78.5t-75 58.5z" />
    <glyph glyph-name="F" unicode="F" horiz-adv-x="417" 
d="M119 438l79.5 38t60.5 30t42 19t33 10.5t25.5 -2t27.5 -12t31 -25.5q54 -48 34 -59q-1 -1 -4 -2q-8 -2 -43 -14l-36 -12l-28 25q-28 24 -44 28q-23 6 -63.5 -12t-54.5 -41q-7 -10 -7 -17.5t8 -27.5q11 -30 11 -121v-91l25 -12q18 -9 70 -12.5t96 -5t48 -5.5q2 -2 -5 -9
t-18.5 -13t-17.5 -6q-8 0 -52 -17t-90 -21q-52 -4 -59 -12.5t-11 -63.5q-3 -39 -7 -49t-19 -22q-23 -17 -28 -17q-4 0 -19.5 -15t-25.5 -5q-4 5 -5.5 12.5t0.5 21l4.5 29t6.5 43.5t7 57l4 52l-23 10q-24 10 -51 10q-52 0 -8 25q10 6 25 14l53 25v64q0 40 -7 75.5t-13.5 51.5
t-7 31t12 25.5t43.5 24.5z" />
    <glyph glyph-name="G" unicode="G" horiz-adv-x="461" 
d="M128 474q17 6 32.5 13t22 9.5t19.5 4t34 0.5q44 -2 65.5 -8t40.5 -20l23 -17l44 21q43 21 53 21q11 0 13.5 -11.5t-6.5 -21.5q-19 -20 -26 -72.5t-7 -173.5l-2 -155l-29 -43q-66 -95 -147 -137t-161 -23q-30 7 -47 23.5t-28 48.5q-6 19 -5.5 29t9.5 34q8 19 16.5 30.5
t15.5 14.5t13 7.5t9 11.5q4 10 20 16q15 5 15.5 15t-14.5 15q-19 6 -41 25t-35 41q-16 27 -21 88q-3 40 -1.5 55t11.5 33q8 16 17 27t13 15.5t4 8.5q0 2 9 16t28.5 33t42.5 26zM285 412q-23 16 -52.5 25t-66 4.5t-61.5 -29.5l-24 -25l3 -58q2 -44 13.5 -75t37.5 -61
q14 -16 49.5 -30t63.5 -14q32 0 51.5 7t38.5 27l21 20l-6 92q-5 84 -12 91q-2 3 -11 5q-16 3 -45 21zM358 75q2 52 -6.5 56.5t-57.5 -21.5q-29 -16 -46.5 -21t-50.5 -6q-25 -1 -39 -4t-19 -5.5t-16.5 -11.5t-22.5 -16q-12 -8 -14.5 -14t0.5 -23q7 -42 27.5 -58.5t74.5 -23.5
q27 -3 42.5 -1.5t38.5 10.5q52 19 69 46t20 93z" />
    <glyph glyph-name="H" unicode="H" horiz-adv-x="491" 
d="M232 109q6 0 16.5 10t19.5 10q27 0 55.5 47.5t43.5 97t12 61.5q-4 16 -30 32.5t-47 16.5q-41 0 -89 -31.5t-54 -61.5q-2 -11 -13 -43t-11 -54q-1 -20 -15.5 -61t-18.5 -55q-7 -28 -17 -37q-9 -7 -49.5 -10t-44.5 3q-3 5 19.5 72t34.5 91q9 16 15.5 106t5.5 171
q-1 53 -3.5 71.5t-12.5 36.5q-21 37 -12 63.5t41 26.5q13 0 21 -4t17 -17q23 -32 31.5 -65.5t10.5 -102.5q2 -87 9 -94t49 8q65 24 129.5 31.5t88.5 -6.5q14 -8 30 -28t16 -59t-16 -70q-14 -28 -14 -39q0 -16 -17.5 -42.5t-40.5 -46.5q-34 -29 -26.5 -38t66.5 -12
q65 -2 76.5 -13.5t4.5 -18.5q-9 -8 -81 -14t-116 -2q-57 5 -99 3.5t-60.5 1t-8.5 15.5q6 7 20 10t33 20q23 20 31 20z" />
    <glyph glyph-name="I" unicode="I" horiz-adv-x="173" 
d="M8 527q7 7 78.5 4.5t81.5 -9.5q9 -6 9 -12t-4.5 -10.5t-9.5 -15t-5 -22.5q0 -17 -7 -36q-12 -29 -26 -314l-4 -87l-35 -6q-36 -6 -45 2t-10 35t4 69t11.5 87t12 100t5.5 97v55l-30 20q-40 28 -26 43z" />
    <glyph glyph-name="J" unicode="J" horiz-adv-x="264" 
d="M28 534q13 10 125 10t112 -10q0 -9 -15 -16q-22 -10 -28 -97t-8.5 -193.5t-13.5 -140.5q-11 -35 -44 -74.5t-65 -57.5q-30 -18 -39 -25t-68 -26t-78 -20q-20 -2 -20 7q0 12 87 52q48 21 86.5 71.5t50.5 105.5q4 20 8 60.5t6 74t5 88.5t5 74q2 36 0 47t-15 26t-21 17.5
t-36 -0.5q-23 -2 -32 -0.5t-11 7.5q-4 11 9 20z" />
    <glyph glyph-name="K" unicode="K" horiz-adv-x="496" 
d="M39 601q19 3 39 0t29 -10q8 -7 8 -157t6 -154q9 -6 158 85q29 17 59.5 44.5t53 44.5t46.5 20q30 5 39 -6q6 -7 3.5 -13t-16.5 -21q-19 -19 -44.5 -31t-39.5 -22q-20 -15 -47 -29q-29 -15 -47 -35.5t-14 -34.5q4 -16 54 -76q31 -39 47.5 -53t41.5 -25q23 -11 42 -14t28 -1
t15 1t9 -8q8 -21 -30.5 -39.5t-89.5 -18.5q-31 0 -44 3.5t-29 13.5q-21 15 -43.5 42t-22.5 37q0 6 -5 11.5l-19 20.5t-28 35q-14 19 -22.5 25.5t-20.5 6.5q-20 0 -26.5 -17t-6.5 -70q0 -60 -8 -78t-42 -33q-52 -23 -54 -11q-1 4 2 13q4 17 4 59.5t-2 116t3 199.5
q5 136 -3 146q-9 11 -4 20.5t21 12.5z" />
    <glyph glyph-name="L" unicode="L" horiz-adv-x="256" 
d="M95 592q21 2 44 2l24 -1l-1 -80q0 -37 -6.5 -110.5t-12.5 -132t-8.5 -115.5t4.5 -64q7 -11 51 -20.5t86.5 -15t45.5 -7.5q5 -5 -10 -19q-14 -13 -47 -15t-67 3.5t-78 11t-70 5.5q-36 0 -42.5 5t6.5 24q11 15 22.5 78.5t10.5 102.5q-1 34 7.5 116t5.5 141q-4 39 -0.5 58.5
t9.5 24.5t26 8z" />
    <glyph glyph-name="M" unicode="M" horiz-adv-x="743" 
d="M250 474q34 18 59 15t52 -28q8 -7 12 -10l8.5 -6.5t9.5 -3.5t8.5 -0.5t11.5 3t14 5.5t20.5 8t26.5 10q72 29 110 23t88 -54q65 -63 47 -125q-7 -25 -21.5 -53t-19.5 -28q-3 0 -29.5 -23t-49 -47.5t-15.5 -26.5q44 -15 102 -19.5t91 4.5q23 5 22 -4q-1 -12 -32.5 -30
t-43.5 -28q-29 -25 -81.5 -29.5t-88.5 13.5q-28 15 -62 15t-37 5q-6 10 16 29t49.5 39.5t30.5 29.5q6 14 36 48q29 32 37 49t8 42q0 53 -33 87.5t-91 42.5q-25 3 -63.5 -4.5t-48.5 -17.5q-7 -6 -9 -163l-2 -157l-23 -20q-22 -19 -58 -28.5t-47 1.5q-6 6 -4.5 12.5t12.5 26.5
q11 19 15.5 39.5t7.5 73.5q2 30 3 49.5t-0.5 37t-2.5 24.5t-5.5 27.5t-5.5 29.5q-6 31 -19.5 45t-35.5 14q-19 0 -56.5 -25t-41.5 -40q-3 -13 0 -139t-6 -137q-10 -21 -33 -41.5t-41 -23.5l-20 -4l1 99q1 100 -4 171q-10 125 -5 139q2 8 16 18q16 12 53 31.5t44 19.5
q6 0 8 -29q1 -19 4.5 -24t16.5 -6q12 -2 22 3t31.5 19.5t41.5 25.5z" />
    <glyph glyph-name="N" unicode="N" horiz-adv-x="554" 
d="M276 458q10 0 15 3t7.5 7t16 7t39.5 3q103 0 164 -94q12 -19 15.5 -32.5t3.5 -41.5q0 -39 -11 -61.5t-48.5 -60.5t-37.5 -42t42 -25q27 -14 43 -18t48 -3q48 0 48 -4.5t-46 -35.5q-47 -31 -77 -36t-63 14q-65 37 -115 37q-15 0 -42.5 -9.5l-48 -16.5t-26.5 -1
q-10 10 20.5 35t77.5 45.5t75 20.5q21 0 28.5 6.5t28.5 40.5q18 31 22 43.5t2 28.5q-8 41 -40.5 79t-66.5 47q-21 5 -59 8q-25 2 -37 -0.5t-31 -12.5q-32 -20 -65 -56.5t-33 -53.5q0 -16 -13.5 -64t-5.5 -77q7 -29 13 -33q22 -14 -39 -46l-46 -25l-12 15q-20 25 -3 192
q5 58 4.5 75t-11.5 44q0 1 -3.5 8t-4.5 10.5t-2.5 11.5t1 15t6.5 15.5t13.5 17.5t22.5 18l27 18l12 -15q13 -15 24 -46q15 -40 24 -44t29 19q23 26 24 31q0 6 39 22.5t52 16.5z" />
    <glyph glyph-name="O" unicode="O" horiz-adv-x="574" 
d="M31 328q0 14 32.5 49t89 74.5t109.5 57.5q27 9 71 7q30 -1 44 -6t43 -24q44 -30 62 -47q27 -25 46 -57t34 -70.5t16 -41.5q9 -16 8.5 -24.5t-8.5 -35.5q-9 -27 -21.5 -47.5t-29.5 -34.5t-31 -23t-37.5 -22t-38.5 -23q-37 -24 -56 -31q-21 -9 -92.5 -8t-78.5 9
q-6 8 -26.5 13.5t-43.5 15.5t-37 28q-18 24 -39 45q-36 36 -46 86.5t13 80.5q17 22 17 29zM323 447q-63 33 -122.5 7t-99.5 -104q-15 -31 -18 -43.5t1 -34.5q10 -64 62 -113.5t108 -49.5q18 0 50.5 -6t56.5 -9t51 0t47 23t31 58q5 16 6 25.5t-1.5 31.5t-17.5 54t-42 75
q-26 41 -112 86z" />
    <glyph glyph-name="P" unicode="P" 
d="M44 516q36 16 56.5 5t17.5 -45q-1 -14 1.5 -18.5t12.5 -5.5t16.5 2t19 11.5t29.5 14.5l65 25q63 23 130 0t83 -53q18 -33 28.5 -121.5t-1.5 -104.5q-3 -4 -10.5 -21.5t-17 -33.5t-38 -39.5t-71.5 -43.5q-51 -23 -70.5 -23.5t-66.5 13.5q-48 11 -76 25l-29 14l-12 -16
q-9 -10 -10.5 -26.5t-0.5 -71.5q2 -61 0 -73.5t-14 -22.5q-17 -13 -46 -13h-30l5 109q5 109 7 307l3 198zM282 464q-63 0 -123 -53q-1 0 -2 -2q-21 -18 -26 -35t-15 -103q-1 -6 -1 -9q0 -21 -2 -27.5t2.5 -11t9.5 -5.5t16.5 -11t24.5 -27q32 -42 81.5 -59.5t85.5 1.5
q44 22 63 60t19 103q0 44 -4 59t-24 51q-27 49 -46.5 59t-58.5 10z" />
    <glyph glyph-name="Q" unicode="Q" horiz-adv-x="636" 
d="M230 475l49 11.5t40.5 9t29.5 2t38.5 -3.5t45.5 -12q37 -12 54 -21.5t41 -32.5q42 -40 58 -75.5t16 -87.5q0 -56 -13.5 -85.5t-51.5 -54.5q-61 -41 -100 -56q-43 -15 3 -23q26 -4 79 -42q52 -37 87.5 -50.5t85.5 -14.5q51 -2 55 -6q5 -5 -17.5 -20t-58 -27.5t-61.5 -8.5
q-18 2 -53 13t-49 19q-54 32 -154 63q-50 16 -70.5 19.5t-46.5 1.5q-32 -4 -90.5 -16.5t-84.5 -21.5q-23 -8 -63 -11t-44 3q-2 5 0.5 9t14 10t30.5 13l53 19q81 28 82 41q1 7 -15 14q-32 16 -61.5 63.5t-46.5 108.5q-6 21 -5 34t11 43q21 72 72 113.5t140 59.5zM343 439
q-26 6 -76 9q-50 4 -74.5 -9t-54.5 -59q-20 -31 -25 -45.5t-6 -47.5q-2 -34 1.5 -46.5t22.5 -40.5q17 -24 25.5 -41.5t14 -26.5t21.5 -25q22 -21 48.5 -29t80.5 -8q38 0 62 11.5t72 52.5l53 46v44q0 43 -6 65q-12 42 -64 91t-95 59z" />
    <glyph glyph-name="R" unicode="R" horiz-adv-x="465" 
d="M275 499q25 5 52 12q20 6 26 5.5t22 -7.5l10 -5q31 -13 41 -29q15 -22 26.5 -63.5t12.5 -75.5l1 -47l-37 -35l-51 -42.5t-38 -31t-11 -16.5q0 -14 31.5 -41.5t55.5 -34.5q30 -8 36 -13q4 -4 -16 -18.5t-45 -28t-34 -13.5q-18 0 -44.5 16t-41.5 36q-47 64 -78 78t-52 -19
q-25 -41 -3 -65q11 -12 7 -22.5t-20 -10.5t-37 -7q-20 -7 -44 -3t-28.5 15t9.5 38q16 31 20.5 67t4.5 132q0 94 -5.5 120.5t-33.5 58.5q-12 14 -7 20t38 18q39 14 57.5 13.5t26.5 -16.5q9 -19 17 -25.5t20 -3t24.5 10.5t37 17t50.5 16zM161 370q0 -17 -6.5 -30t-6.5 -66
q0 -57 7.5 -69t33.5 3q24 13 72 13q43 0 65.5 8.5t32.5 27.5q9 17 9.5 46t-6.5 56q-6 21 -26 46t-33 29q-69 18 -118 -19q-15 -12 -19.5 -20t-4.5 -25z" />
    <glyph glyph-name="S" unicode="S" horiz-adv-x="432" 
d="M40 397q0 47 43 101t79 66q22 7 98 5l75 -1l28 -27q26 -26 35.5 -44.5t13.5 -56.5q4 -37 -5 -47t-48 -11q-25 -1 -33.5 1.5t-17.5 13.5q-13 17 -13 47q0 35 -19 59.5t-44 31t-51 -10.5t-37 -57q-10 -32 -6.5 -52.5t22.5 -42.5q12 -15 25 -20t57 -12q56 -10 87 -26t66 -55
q24 -26 29 -37t5 -32q0 -33 -16 -66.5t-35 -39.5q-9 -3 -41.5 -22.5t-56.5 -22.5l-89 -11q0 -1 -2 -1q-12 -2 -22.5 -3t-34 0t-42.5 8t-39 25.5t-31 46.5q-7 18 5 50q7 20 15 29t27 18q30 15 42 15q13 0 16 -11t-7 -22q-11 -11 -7.5 -26.5t24.5 -45.5q23 -34 61.5 -45
t69.5 8q19 12 45 56t21 59q-4 12 -41 43l-37 30h-63q-44 0 -57 2.5t-31 16.5q-20 15 -41.5 55t-21.5 61z" />
    <glyph glyph-name="T" unicode="T" horiz-adv-x="373" 
d="M249 625q47 24 64 10q8 -7 0 -21q-16 -29 -28 -61t-9 -39q4 -11 75.5 -6t85.5 -3q22 -18 -12 -40q-14 -9 -31.5 -11.5t-65.5 -2.5q-66 0 -76 -7q-7 -6 -13 -33q-12 -54 -24 -94t-17.5 -54t-9 -33.5t-1.5 -49.5q1 -35 5 -46.5t20 -28.5q46 -47 99 -6q28 21 37 11
q4 -4 -1 -15q-8 -13 -13 -13t-32 -23q-21 -18 -45 -24.5t-72 -7.5q-22 -1 -37 2.5t-24 13t-14 16.5t-11.5 22t-10.5 22q-20 37 -5 106q38 167 68 203q9 11 7 24q-2 7 -15 10t-61 5q-74 3 -74 15q0 8 32 26q20 12 36 15.5t50 5.5l54 2l13 40q12 35 21 45.5t35 24.5z" />
    <glyph glyph-name="U" unicode="U" horiz-adv-x="581" 
d="M150 431q-1 0 -49 16.5t-61 16.5q-6 0 -13.5 3t-11.5 10.5t13 19.5q18 14 26.5 14t16.5 10q5 7 11 9t18.5 -0.5t26.5 -7l45.5 -14t65.5 -17.5q57 -14 63 -19q4 -4 -7.5 -17.5t-27.5 -25.5t-24 -12q-46 0 -105 -60q-27 -27 -34 -40t-12 -48q-5 -31 -4.5 -45.5t7.5 -36.5
q9 -30 27 -57.5t27 -27.5t28 -10q16 -8 46.5 -9t61.5 5t56 23.5t29 42.5q5 31 28 80.5t23 56.5q0 4 8 21l21.5 47t23.5 57q16 42 30 52q11 8 53.5 10t47.5 -6q4 -6 -20 -47t-42 -65q-28 -40 -65 -145q-20 -58 -15.5 -89t21.5 -46.5t37.5 -20t31.5 -8t4 -10.5
q-8 -8 -61 -12.5t-75 0.5q-24 7 -42 27q-12 14 -19 16.5t-25 -0.5q-17 -3 -27.5 -8.5t-15.5 -10t-32 -9t-76 -7.5q-76 -4 -106 11.5t-54 70.5q-9 21 -11 37t0 47q2 33 7.5 50.5t24.5 52.5q30 52 69 83q51 41 37 42z" />
    <glyph glyph-name="V" unicode="V" horiz-adv-x="559" 
d="M164 442q0 8 -72 10t-72 12q0 21 69.5 32t132.5 12t72 -1q17 -2 27.5 -9.5t10.5 -16.5q0 -8 -19 -19t-31 -11q-8 0 -36 -23.5t-33 -23.5q-7 0 -71 -67l-65 -67l4 -32q4 -30 14 -48.5t34 -41.5q16 -16 33 -24t59 -18q67 -17 95 -17q24 0 54.5 9.5t43.5 21.5q20 18 34 71.5
t29 167.5q3 24 -0.5 32.5t-30.5 33.5q-25 24 -28.5 31t4.5 15q11 12 36 16.5t42 -1.5q17 -7 40 -28q16 -16 18.5 -24t-0.5 -39q-13 -127 -24 -171q-11 -38 -58 -83t-121 -87q-29 -16 -45 -19t-75 -3q-69 0 -95 6t-35 7q-22 1 -46 24q-28 27 -38.5 55.5t-10.5 76.5
q0 40 3.5 55t20.5 44q20 36 36 54t57 50q37 30 37 38z" />
    <glyph glyph-name="W" unicode="W" horiz-adv-x="731" 
d="M125 478q50 4 96.5 2.5t52.5 -8.5q9 -8 3 -18t-19 -10q-12 0 -39 -14t-50 -22q-84 -27 -84 -145q0 -43 10 -67.5t40 -55.5q25 -27 35 -32.5t32 -5.5q31 0 54 9q18 8 43.5 37t29.5 48q10 42 30.5 102.5t28.5 69.5q13 14 36.5 22.5t31.5 1.5q7 -7 -11 -34
q-22 -34 -26.5 -115t15.5 -104q10 -12 43.5 -20t54.5 -4q22 5 56 37t48 61q13 27 27 47q14 24 17 65.5t-9 60.5q-10 17 -37 28.5t-54 11.5q-21 0 -21 2q-1 2 6 9q10 12 43 30q21 11 32.5 13.5t29.5 -0.5q49 -8 68.5 -51.5t6.5 -115.5q-9 -51 -82.5 -135t-142.5 -122l-39 -22
l-48 8q-32 6 -42 11t-21 21q-16 25 -16 36t-10 19q-6 5 -10.5 2t-12.5 -17q-24 -40 -84 -65q-20 -9 -32.5 -9.5t-49.5 5.5q-38 7 -50 13t-32 29q-32 35 -45 66.5t-15 80.5q-3 54 4.5 58.5t7.5 15.5q0 16 28 48t51 43q31 15 31 22q0 4 -21 8t-44.5 8t-26.5 7q-9 9 20 20
q26 10 62 14z" />
    <glyph glyph-name="X" unicode="X" horiz-adv-x="683" 
d="M325 219q0 5 -23.5 39.5t-23.5 44.5q0 8 -11 24.5t-28 38t-22 29.5q-8 11 -16.5 13.5t-38.5 1.5q-43 -1 -66 -13q-37 -20 -63.5 -26t-32.5 3q-8 13 8 24.5t40 20t26 9.5q7 6 57 27q31 12 51 16t52 4h54l47 -49q47 -48 69 -80q19 -28 32 -31t31 17q12 13 58.5 44.5
t54.5 31.5q3 0 21 14.5l40.5 32.5t36.5 24q12 6 30.5 8.5t32.5 0.5t13.5 -7.5t-16 -14l-44 -23.5t-49.5 -32l-43.5 -31.5t-37.5 -29t-41 -41.5l-45 -49l28 -30q21 -21 62.5 -45l72 -43t32.5 -32q2 -11 -7 -22t-36 -29q-20 -14 -29 -16t-30 3q-25 6 -41 19.5t-21 13.5
q-8 0 -57 40q-25 21 -37.5 30t-22 9.5t-13.5 -3l-15.5 -13t-24.5 -16.5q-16 -8 -36.5 -26.5t-35 -33t-17.5 -14.5q-2 0 -27.5 -15.5t-65.5 -34.5t-75 -26q-32 -6 -31 8q1 15 31 25q4 2 8 3q31 8 140 96q29 23 62 61.5t33 49.5z" />
    <glyph glyph-name="Y" unicode="Y" horiz-adv-x="468" 
d="M47 452q19 5 41 11.5t35 10t21 3.5q21 1 40.5 -40t19.5 -87q0 -40 12.5 -83.5t28.5 -61.5q9 -10 19.5 -13t34.5 -3q21 0 33 1.5t23.5 8t17 15t12 28.5t10.5 42t10 62q14 94 18 98q5 5 32 13.5t41 9.5t16.5 -4t-1.5 -24t-6 -34q-7 -58 -16.5 -100t-22 -85.5t-20.5 -80.5
q-7 -31 -12.5 -50.5t-9 -27.5t-12 -24.5t-13.5 -29.5q-14 -31 -33 -48q-16 -15 -43 -30t-38 -15t-19 -7q-8 -9 -53 -4t-79 17q-51 19 -82.5 52t-37.5 74q-3 19 -0.5 26t15.5 16q29 21 62 11q23 -7 16 -25q-8 -22 33 -69.5t73 -53.5q35 -6 45.5 -2t36.5 32.5t36 47.5t21 63
q11 43 8.5 51.5t-24.5 7.5q-27 -2 -37 -11q-24 -20 -66 -16t-69 29q-21 19 -29 47t-19 123q-5 47 -9.5 61.5t-15.5 24.5q-18 15 -43 19q-22 4 -22 11.5t21 12.5z" />
    <glyph glyph-name="Z" unicode="Z" horiz-adv-x="419" 
d="M164 503q36 20 98 12.5t110 -36.5q15 -9 48.5 -14l58.5 -8.5t25 -9.5q0 -5 -6 -8.5t-19 -9t-23 -13.5q-18 -12 -34 -12q-35 0 -61 -52q-15 -31 -93 -110l-78 -80l34 -17q26 -13 56 -33t66 -41l47 -26l89 1q30 0 48 0.5t27 -1t11 -3.5t2 -6q-2 -11 -53 -33
q-32 -14 -51 -18t-53 -4q-45 0 -75 8t-86 35q-87 42 -126.5 54t-81.5 9q-32 -2 -32 6q0 9 58 46q38 25 56 40q13 11 29.5 19t39 24t58.5 52q129 130 67 130q-16 0 -69 24q-36 17 -51 20t-43 0q-23 -3 -40.5 -9.5t-22.5 -11.5t-12 -7.5t-9 3.5q-17 17 67 67z" />
    <glyph glyph-name="backslash" unicode="\" horiz-adv-x="338" 
d="M103 629l33 -67l-1 -1l22 -55q17 -42 44.5 -97l52 -100l46.5 -87t31.5 -69t3.5 -35t-45 -2l-38 6l-39 87q-128 285 -152 314q-14 19 -21 36q-5 12 -14 22.5t-15.5 15t-9 10.5t4.5 12q7 7 80 10h17z" />
    <glyph glyph-name="a" unicode="a" horiz-adv-x="393" 
d="M102 283q7 0 18 10t22 13q22 4 49 -0.5t40 -14.5q16 -13 28 -13.5t32 9.5q25 14 31.5 4t2.5 -57q-5 -54 -0.5 -79.5t21 -36.5t26.5 -2q13 11 15 -6q1 -14 -9 -33q-18 -33 -41 -43.5t-46 2.5q-7 4 -18 11q-29 17 -37 18.5t-30 -6.5q-29 -10 -56 -17q-33 -9 -43.5 -9
t-30.5 8q-31 15 -47 35.5t-22 55.5q-4 32 -3 38.5t5 13t4 16.5q0 12 38 47.5t51 35.5zM161 223q-34 23 -56.5 25.5t-41.5 -13.5q-16 -14 -23 -41t0 -46q8 -18 35 -37q17 -12 30 -15.5t42 -3.5q47 1 68.5 14t23.5 42q4 48 -26 48q-12 0 -52 27z" />
    <glyph glyph-name="b" unicode="b" horiz-adv-x="259" 
d="M118 363q2 0 6 1q31 3 43 3.5l24.5 1t17 -2.5l8.5 -5.5t9 -10.5l2 -2q18 -25 20.5 -40t-9.5 -41q-15 -31 -21 -34q-7 -5 -5.5 -20t10.5 -32q23 -45 -30 -98q-41 -41 -91 -49t-73 22q-8 12 -11 34.5t-5 96.5l-3 113l26 29q18 21 29 25.5t53 8.5zM159 283q-10 14 -24.5 17
t-43.5 -2l-23 -5l-2 -45q-1 -27 0.5 -37t7.5 -12q7 -3 39.5 6t51.5 18q10 5 8 24.5t-14 35.5zM154 127q-5 15 -20 19t-35 -4q-15 -6 -13 -22q1 -9 7.5 -13t23.5 -6q28 -5 36 1t1 25z" />
    <glyph glyph-name="c" unicode="c" horiz-adv-x="335" 
d="M132 311q34 18 138 25q14 1 45 -27.5t32 -46.5t-27 -36q-27 -16 -41.5 -15.5t-31.5 18.5t-50.5 33t-58.5 15q-17 0 -27.5 -5.5t-29.5 -23.5l-30 -29l10 -29q12 -34 20 -44t32 -22q23 -12 46.5 -16.5t42 -3.5t35.5 5t29.5 9t21.5 8t13.5 2t4.5 -9q0 -14 -56 -47.5
t-92 -40.5q-38 -7 -96 33q-22 15 -37 52.5t-13 68.5q4 47 23 67t97 59z" />
    <glyph glyph-name="d" unicode="d" horiz-adv-x="342" 
d="M-111 460q16 18 38.5 23t51.5 -3t46 -15t46 -21q73 -37 81 -37q9 0 42 -26.5t73 -66.5q81 -82 73 -132q-3 -23 -25.5 -67.5t-31.5 -47.5q-14 -4 -37.5 -12.5t-36 -12.5t-30 -8t-31.5 -3.5t-28 5.5q-61 21 -87 48.5t-26 71.5q0 34 10 54q6 14 42 44.5t58 41.5
q40 20 -14 44q-13 5 -38.5 18t-49.5 23t-53 19q-49 14 -68 30q-13 12 -14 16t9 14zM203 263q-47 21 -60.5 20.5t-35.5 -23.5q-19 -20 -24.5 -35.5t3.5 -21.5q6 -4 10 -32q3 -25 16.5 -39.5t54.5 -37.5q26 -15 37 -18t21 1q27 12 25 92q-2 51 -9 65.5t-38 28.5z" />
    <glyph glyph-name="e" unicode="e" horiz-adv-x="322" 
d="M20 212q6 9 52.5 34.5t107.5 43t111 -4.5q17 -9 45.5 -42t28.5 -45q0 -17 -30 -25t-75.5 -10.5t-52.5 -3.5q-21 -5 -44 9q-19 12 -37.5 13.5t-27.5 -7.5q-11 -10 5.5 -37t40.5 -37q16 -6 60.5 -5t75.5 9q31 7 40 -1q13 -14 -33 -40q-22 -12 -51 -21q-42 -15 -86 -15
t-63 4.5t-23 6.5q-22 12 -45 39.5t-23 42.5q0 14 8.5 46.5t15.5 45.5zM219 244q-7 7 -36.5 9.5t-42.5 -3.5q-11 -5 -26 -18.5t-5 -23.5q3 -6 11.5 -4.5t15 6t21 9t30.5 4.5q38 0 36 14q0 3 -4 7z" />
    <glyph glyph-name="f" unicode="f" horiz-adv-x="262" 
d="M216 424q8 14 50 1t49 -32q9 -22 -2.5 -38t-47.5 -35l-25 -13l-19 18q-41 38 -58 28q-4 -3 -4 -11q0 -6 -9 -23.5t-18 -42t-8 -49.5q0 -22 -2.5 -41.5t-4.5 -27.5t-0.5 -16.5t9.5 -17.5q9 -10 21 -12.5t49 -1.5q69 0 69 -11q1 -8 -33 -30q-23 -15 -50.5 -22t-44.5 -7.5
t-31 -11.5t-18 -35q-3 -17 -4.5 -43t-3.5 -42t-7 -23q-9 -10 -33 -14t-33 3.5t-9 14.5t6.5 18l14.5 25t15 42.5t7 63.5q0 4 -7.5 6.5t-16 5t-14 7t0 14t23.5 24.5l26 20l2 83q2 82 7 96q6 15 43.5 45.5t73 56.5t37.5 28z" />
    <glyph glyph-name="g" unicode="g" horiz-adv-x="341" 
d="M306 301q36 21 36 4q0 -3 -1 -6q-1 -9 -5 -31t-6 -34t-5 -36t-3 -37.5t1 -38.5q6 -86 1 -113t-34 -57q-29 -31 -78 -51q-81 -31 -141.5 -28.5t-68.5 38.5q-12 49 30 87q26 23 32.5 23t14.5 15q6 12 0 19t-21 21t-22 33q-11 27 -2 61.5t32 54.5q110 96 188 71
q18 -6 26.5 -5t25.5 10zM228 227q-24 0 -39.5 6.5t-19 11t-11.5 3t-25 -15.5q-20 -15 -21 -33.5t16 -43.5q20 -30 58 -42t54 6q9 11 14 46q1 4 2 11q6 38 3.5 44t-24.5 7h-7zM245 58q-11 8 -19.5 9t-15.5 -1.5t-26.5 -10t-41.5 -13.5q-28 -7 -43 -24q-11 -11 -12 -17t5 -20
q8 -21 23.5 -27t58.5 -6q48 0 62.5 11t19.5 50q3 26 1 33.5t-12 15.5z" />
    <glyph glyph-name="h" unicode="h" horiz-adv-x="343" 
d="M33 480q4 4 7.5 3.5t23.5 -8.5q24 -11 42 -34q12 -15 15.5 -31t5.5 -64q3 -73 9 -79t59 12q38 12 50 13t35 -6q32 -9 40 -16q20 -16 10 -59.5t-41 -78.5q-11 -12 -15.5 -18.5t-4.5 -11t4.5 -6t14.5 -1.5q16 0 36 -10.5t20 -18.5q0 -11 -21 -22.5t-41.5 -13.5t-29.5 6
q-4 8 -71 3q-62 -4 -64 2q-1 2 0 5q2 10 24.5 26t40.5 21q35 8 59.5 44t16.5 67q-4 16 -10.5 20t-21.5 5.5t-28 8.5q-14 7 -37 1q-13 -4 -18 -10t-8 -20q-5 -25 -25 -79.5t-28 -63.5q-9 -12 -36 -25l-26 -14l-12 15q-12 16 -11.5 28.5t13.5 29.5q31 39 45 90.5t6 99.5
q-4 25 -7 64.5t-6.5 62.5t-8.5 28q-8 6 -10 17.5t4 17.5z" />
    <glyph glyph-name="i" unicode="i" horiz-adv-x="130" 
d="M53 266q25 20 31 22t15 -9q8 -9 7.5 -49.5t-7.5 -50.5q-2 -2 -6 -13.5t-4 -35.5t11 -43l15 -25l-16 -16q-39 -42 -71 -21q-12 8 -14 14.5t1 27.5q5 31 18 60q11 25 11 58t-11 46q-6 7 -2.5 13t22.5 22zM178 403q10 7 22 7t15 -5q5 -8 -23.5 -31t-46.5 -27q-14 -3 -31 -10
t-29.5 -13t-24.5 -9.5t-20.5 -1t-12.5 14.5q-4 10 25 36q19 16 32 21.5t40 7.5q42 4 54 10z" />
    <glyph glyph-name="j" unicode="j" horiz-adv-x="199" 
d="M107 275q17 11 22 11t14 -12q7 -11 6.5 -44.5t-8.5 -56.5q-5 -14 -12 -74.5t-21.5 -116.5t-39.5 -80q-35 -34 -130 -64q-79 -26 -79 -7q0 5 18.5 15.5t27.5 10.5q7 0 44 18q22 10 34.5 21t24.5 31q21 33 27.5 55t18.5 104l18 112q2 12 -1.5 22.5t-4.5 15t8 14t33 25.5z
M91 363q21 16 32.5 20.5t34.5 4.5q36 0 40 -6q4 -8 -4 -24.5t-17 -16.5q-8 0 -50 -18t-52 -12q-15 10 -11 21.5t27 30.5z" />
    <glyph glyph-name="k" unicode="k" horiz-adv-x="280" 
d="M75 490q13 14 20.5 12.5t5.5 -18.5q-14 -131 -22 -167q-4 -21 -4 -60.5t5 -41.5q6 -2 134 81q39 25 54.5 32.5t20.5 2.5q12 -13 -62 -63q-19 -14 -25.5 -28t4.5 -20q6 -4 21 -52q10 -28 17 -39.5t18 -17.5q22 -11 18 -28.5t-32 -39.5q-29 -22 -35 -22t-28 39t-34 66
q-15 33 -28 35q-14 2 -35 -21.5t-32 -52.5q-10 -25 -25.5 -43t-24.5 -13q-6 4 -7 16.5t3 38.5t9.5 58.5t12.5 89t11 116.5q4 64 12 91t28 49z" />
    <glyph glyph-name="l" unicode="l" horiz-adv-x="215" 
d="M90 314q0 28 10 72t10 58q0 15 13 34.5t24 19.5q8 0 24 17q33 35 32 3q-1 -16 -12 -49q-11 -32 -23 -108t-16 -83t-10.5 -40.5t-18.5 -55.5q-11 -23 -12.5 -63.5t9.5 -49.5q4 -3 56 -10q31 -4 31 -11.5t-28 -19.5q-32 -15 -53 -18q-13 -2 -67 7t-65 16q-2 1 0 5t6.5 10
t11.5 13q20 21 29 42.5t20 70.5t23 86q6 21 6 54z" />
    <glyph glyph-name="m" unicode="m" horiz-adv-x="497" 
d="M259 256q3 0 62.5 27t86.5 27q13 0 35.5 -18.5t28.5 -33.5q6 -16 0 -38l-15 -50q-5 -18 -14 -33.5l-13.5 -23t-2.5 -9.5q10 -9 75 -26q40 -10 40 -18q0 -7 -19 -15q-41 -17 -73.5 -20.5t-49 1.5t-38 7t-38.5 -4q-22 -8 -31 0q-12 10 -7.5 22.5t28.5 34.5q43 40 57 62
t14 52q0 21 -3 29.5t-10 12.5q-13 7 -29.5 7t-23.5 -7q-6 -6 -32 -15q-18 -7 -24 -14t-14 -31q-11 -36 -7 -81l4 -45l-36 -17q-45 -23 -51 4q-5 22 15 100q6 26 5.5 35.5t-9.5 28.5q-12 27 -29 36q-12 5 -17.5 5t-16.5 -7q-16 -11 -20 -28t-6 -78q-1 -48 -4.5 -59t-22.5 -29
q-22 -22 -30.5 -24t-15.5 15q-7 15 1 30.5t7 110.5q0 68 2 84t13 26q15 14 31 20q20 8 28 6t13 -15q5 -15 19.5 -16.5t27.5 10.5q12 10 34 14q15 2 22.5 -1.5t22.5 -22.5q22 -28 30 -28z" />
    <glyph glyph-name="n" unicode="n" horiz-adv-x="387" 
d="M60 310q22 13 26 13q6 0 15.5 -14t14.5 -32q5 -17 13.5 -22.5t20.5 -1.5t23 11l25.5 16t24.5 12q14 4 30.5 10.5t24 9t17 2.5t20.5 -5q18 -7 35 -27t17 -34q0 -17 -20 -54.5t-39 -56.5q-25 -25 -18.5 -34t49.5 -7q64 1 58 -14q-3 -6 -50 -30q-34 -17 -48 -20t-52 1
q-75 6 -75 24q0 8 29 49.5t54 67.5q21 24 24 38.5t-10 33.5q-10 16 -30 17t-40 -13q-13 -10 -31.5 -16t-27 -10.5t-15.5 -27t-8 -67.5q-1 -42 -4 -54t-16 -25q-17 -18 -44 -31t-38 -9q-23 9 6 71q11 23 14 41.5t4 57.5q0 62 -4 69q-7 11 1 30.5t24 30.5z" />
    <glyph glyph-name="o" unicode="o" horiz-adv-x="347" 
d="M120 292q12 4 83 1q57 -3 79.5 -12t59.5 -44q17 -16 19 -31t-8 -62q-4 -20 -39.5 -51t-54.5 -31q-13 0 -46 -17q-46 -22 -104 -16.5t-86 35.5q-24 27 -22.5 62.5t18.5 70t45 61t56 34.5zM269 187q-21 21 -60.5 38.5t-54.5 17.5q-19 0 -34.5 -11t-21.5 -28.5t-5 -36.5
t16.5 -38.5t42.5 -32.5q59 -27 107 -1q40 22 31 59q-5 17 -21 33z" />
    <glyph glyph-name="p" unicode="p" horiz-adv-x="364" 
d="M281 62q-15 0 -41 -13.5t-63 -13.5q-41 0 -52 -8q-9 -8 -14.5 -59.5t-11.5 -58.5q-8 -9 -44 -26q-25 -12 -32.5 -13t-14.5 6q-6 6 -6.5 12.5t2.5 16t7.5 20t10 27.5t8.5 36q5 32 3.5 136.5t-6.5 135.5q-6 29 -3 36.5t24 16.5q26 11 37 8t25 -25q7 -11 10.5 -16t9 -6.5
t9.5 0t15.5 5t22.5 5.5q95 20 146.5 -24t30.5 -125q-8 -31 -29 -52t-44 -21zM203 242q-15 8 -21.5 7t-25.5 -12q-22 -13 -29.5 -29.5t-4.5 -43.5q2 -19 8 -30t23 -27t27.5 -20.5t32.5 -4.5q27 0 37 7.5t18 33.5q6 21 -4 38t-10 26q0 10 -16.5 28t-34.5 27z" />
    <glyph glyph-name="q" unicode="q" horiz-adv-x="411" 
d="M59 235q28 33 50 46t47 14t63 -1q58 -1 81.5 -10.5t63.5 -46.5q17 -16 19 -31t-8 -62q-2 -11 -24.5 -35.5t-45.5 -40.5l-16 -11l17 -9q16 -9 98 -10q58 0 58 -13q0 -4 -6 -11q-12 -13 -21 -13t-47 -20q-34 -18 -70 -19.5t-88 13.5q-46 12 -97.5 12.5t-84.5 -10.5
q-31 -12 -39 -4q-17 17 40 42l31 14l-24 20q-23 18 -28.5 39.5t-0.5 67.5q3 32 8 45t24 34zM312 148v1v8t-4.5 12.5t-13 17t-26 19.5t-43.5 21q-47 20 -74.5 13t-38.5 -42q-6 -19 -5.5 -27.5t7.5 -24.5q17 -36 58.5 -52.5t84.5 -5.5q55 14 55 60z" />
    <glyph glyph-name="r" unicode="r" horiz-adv-x="295" 
d="M113 306q4 3 40 0t56 -3q29 0 45 -16q19 -19 15.5 -38.5t-29.5 -49.5q-31 -37 -29 -43t39 -50q10 -13 16 -19.5t13 -12.5t10 -8t11 -4t12 -2h17t22 -1q23 -1 26 -7t-6.5 -12.5t-25 -11.5t-35 -9t-37.5 -4.5t-31 2.5q-10 3 -61 47q-69 59 -88 41q-10 -10 -10 -41
q0 -43 -41 -52q-11 -3 -16.5 -0.5t-12.5 13.5q-8 12 -8.5 27t3 30.5t9 47.5t8.5 65q3 39 1.5 48t-11.5 11q-13 4 -13 8.5t45.5 22.5t65.5 21zM187 247q-13 10 -24.5 13t-34.5 3q-39 0 -42.5 -9t-1.5 -62l2 -53l22 1q21 1 45.5 20t38.5 45l15 25z" />
    <glyph glyph-name="s" unicode="s" horiz-adv-x="287" 
d="M107 285q69 7 102.5 1.5t56.5 -27.5q17 -17 18 -26.5t-14 -19.5t-42 -3l-44 11q-17 4 -35 21q-15 13 -28.5 12.5t-13.5 -14.5q0 -13 22.5 -28.5t50.5 -23.5q24 -6 55.5 -20.5t43.5 -24.5q11 -9 12 -26t-9 -34q-8 -16 -55.5 -32.5t-96.5 -20.5q-35 -3 -47 -0.5t-32 14.5
q-34 22 -42.5 53t17.5 41q17 6 34.5 4t20.5 -11q5 -18 12.5 -26t28.5 -20q69 -39 69 18q0 12 -7.5 18.5t-36.5 20.5q-28 13 -55 19t-40 7.5t-23 9.5t-14 27q-3 17 -1.5 24.5t11.5 18.5q30 33 82 37z" />
    <glyph glyph-name="t" unicode="t" horiz-adv-x="232" 
d="M82 349q5 10 12.5 20t17.5 17t20.5 0.5t17.5 -28.5q9 -26 34.5 -41.5t61.5 -16.5q19 0 24.5 -2.5t5.5 -10.5q0 -15 -41.5 -28.5t-53.5 -10.5q-15 3 -27.5 -4t-27.5 -47.5t-15 -68.5q0 -37 19.5 -47t66.5 2q10 2 13 -6q2 -5 -15.5 -16t-44 -20.5t-54 -15t-49.5 0.5t-27 26
q-6 25 3.5 69t24 86t14.5 47q3 19 -7 26t-51.5 13t-43.5 20q-1 5 5 8q9 6 59 9q33 2 43 5.5t15 13.5z" />
    <glyph glyph-name="u" unicode="u" horiz-adv-x="390" 
d="M1 264q-1 2 3 6.5t15 10t27 10.5t42.5 8t57.5 2q25 -1 31 -3.5t8 -14.5q1 -11 -7 -21.5t-33 -32.5q-47 -41 -57.5 -76.5t17.5 -59.5q43 -36 104 -14q34 12 40 17q4 4 7.5 80t9.5 84q14 16 44.5 29.5t52.5 13.5q35 0 34 -9q-1 -6 -18 -13q-16 -7 -20.5 -14t-7.5 -29
q-3 -29 3.5 -71t7.5 -55q1 -17 5 -23.5t16 -12.5q28 -13 -8 -29q-12 -6 -33 -12l-43 -15l-26 14q-20 12 -32 13.5t-19.5 -3t-29 -11t-51.5 -9.5q-31 -3 -45 -1t-40 15q-38 18 -49 35q-8 12 -8 20t9 34q13 37 45 69q16 15 24 27t8 20t-8 11q-7 2 -40 4.5t-36 5.5z" />
    <glyph glyph-name="v" unicode="v" horiz-adv-x="323" 
d="M35 278q23 11 61 12q24 0 33.5 -3t19.5 -14q11 -12 11.5 -17.5t-8.5 -25.5q-7 -16 -21.5 -30.5t-26.5 -23.5t-21.5 -19.5t-8 -24.5t15.5 -32q18 -22 44 -23.5t56 18.5q19 13 26 22t10 25q4 28 -1.5 54t-20.5 42q-16 17 -11.5 27.5t32.5 17.5q32 7 48 6t25.5 -11.5
t17 -40.5t7.5 -59q0 -19 -5.5 -29t-26.5 -32q-31 -32 -58 -45l-52 -25q-24 -12 -78 -12q-40 0 -50.5 3t-27.5 19q-23 22 -27 43q-3 15 0.5 22.5t22.5 24.5q25 22 37.5 46t5.5 35q-4 6 -14 11t-19 8t-15 7t-1.5 9.5t20.5 14.5z" />
    <glyph glyph-name="w" unicode="w" horiz-adv-x="482" 
d="M346 297q4 6 41 6t50 -7q16 -8 28 -36.5t12 -57.5q0 -22 -5.5 -36.5t-24.5 -43.5q-20 -30 -33 -42t-44 -28q-87 -44 -111 -7q-11 16 -33.5 16.5t-48.5 -14.5q-37 -22 -89 -12t-68 41q-6 11 -3 38t11 32q6 4 6 16t20 34q15 15 16.5 19.5t-6.5 13.5q-9 10 -33.5 16.5
t-27.5 11.5q-5 8 7.5 20t28.5 16q16 3 67 -2.5t71 -13.5q12 -4 14 -7.5t-3 -9.5q-8 -10 -20 -10q-18 0 -40 -17.5t-33 -40.5q-14 -27 -11.5 -44.5t22.5 -40.5q13 -14 23.5 -18t39.5 -6q31 -2 39.5 0.5t18.5 15.5q15 18 15 32.5t9 50.5q14 50 41 65q19 10 22 -15q0 -7 -1 -17
q0 -3 -1 -8q-9 -71 -8.5 -84.5t12.5 -24.5l1 -1q11 -10 19 -12.5t23 0.5q27 5 38 26t7 63q-7 84 -38 96q-30 11 -20 27z" />
    <glyph glyph-name="x" unicode="x" horiz-adv-x="396" 
d="M236 199q6 0 65.5 60.5t69.5 60.5q13 0 13 -4q0 -3 -15 -18.5l-38.5 -41.5t-38.5 -48t-18 -31t2 -18q8 -13 37.5 -34.5t62.5 -35.5q21 -10 20.5 -20.5t-21.5 -26.5q-16 -12 -27 -14.5t-17 0.5t-21 13t-30 17q-16 8 -28 17t-15 12t-8 2.5t-15 -9.5q-17 -15 -44 -32
t-42 -23q-22 -8 -21 -1q0 8 27 26q32 20 52 41l19 21l-133 134l-33 -10q-32 -10 -39 -6q-12 7 19 19q55 21 107 18q4 0 8 -1q24 -3 35 -9t30 -27q29 -31 37 -31z" />
    <glyph glyph-name="y" unicode="y" horiz-adv-x="300" 
d="M29 288q10 3 34 4q28 1 34.5 -14.5t2.5 -71.5l-4 -64l22 -27q16 -19 23.5 -22.5t27.5 1.5q13 2 20.5 6.5t9.5 6.5t6 14.5t6 16.5q6 16 13 71q5 47 11.5 60.5t25.5 19.5q25 6 28.5 -11.5t-5.5 -63.5q-2 -13 -3.5 -20.5t-3 -20.5t-3.5 -24q-6 -51 -67.5 -124.5
t-132.5 -115.5q-31 -18 -47.5 -22t-79.5 -4q-71 0 -90 9t-25 45q-2 15 1 23t16 20q20 20 27 20t32 -32q17 -21 26.5 -26.5t36.5 -8.5q30 -3 68 7t64 28q13 9 29.5 28.5t17.5 26.5q0 6 -41 8q-31 2 -38.5 6t-18.5 26q-8 15 -10.5 22.5t-3 13t-0.5 26t-2 46.5q-5 63 -20 84.5
t-6 25.5z" />
    <glyph glyph-name="z" unicode="z" horiz-adv-x="404" 
d="M148 328q31 10 81.5 7t73.5 -17q15 -9 30.5 -11.5t52.5 -1.5q38 1 51 -3t3.5 -13t-43 -26t-73 -52l-72.5 -67t-47 -41q-19 -10 -19 -17t76 -44l75 -37l63 1q67 2 62 -8q-3 -5 -21 -11q-14 -5 -33.5 -15t-37 -14t-52.5 -4q-46 0 -84.5 10.5t-60 23t-48.5 23.5t-51 11
q-71 2 -73 17.5t67 39.5q51 17 106 56t84.5 70t21.5 33l-64.5 19.5t-41 13t-25.5 8t-19 3t-22 -1.5q-29 -5 -29 2q0 8 23 23t46 23z" />
    <glyph glyph-name="quotedblleft" unicode="&#x201c;" horiz-adv-x="230" 
d="M26 634q57 38 73 -38q8 -39 -43 -85q-33 -30 -50 -25q-10 3 5 24q11 14 10 37.5t-13.5 36.5t-8.5 24t27 26zM155 634q57 38 73 -38q8 -39 -43 -85q-33 -30 -50 -25q-10 3 5 24q11 14 10 37.5t-13.5 36.5t-8.5 24t27 26z" />
    <glyph glyph-name="quotedblbase" unicode="&#x201e;" horiz-adv-x="235" 
d="M30 150q57 38 73 -38q8 -39 -43 -85q-33 -30 -50 -25q-10 3 5 24q11 14 10 37.5t-13.5 36.5t-8.5 24t27 26zM159 150q57 38 73 -38q8 -39 -43 -85q-33 -30 -50 -25q-10 3 5 24q11 14 10 37.5t-13.5 36.5t-8.5 24t27 26z" />
    <glyph glyph-name="bullet" unicode="&#x2022;" horiz-adv-x="129" 
d="M30 211q22 11 29 12q3 0 33.5 -41.5t30.5 -47.5q0 -8 -16 -21.5t-27 -13.5q-18 0 -42 14t-31 29q-10 18 -3 38t26 31z" />
    <glyph glyph-name="Euro" unicode="&#x20ac;" horiz-adv-x="478" 
d="M91 202l2 -6q6 -24 32 -51q42 -46 115 -56.5t136 20.5q40 20 59 33q15 11 30 13t21 -7q4 -7 -33 -44t-62 -50q-23 -12 -99.5 -18.5t-108.5 0.5q-7 1 -21 4t-19 4t-15 5t-20 10t-24 17q-41 29 -57 62q-11 23 -15 59q-4 -1 -7 -2q-17 -5 -24 -5t-14 3q-24 12 43 30v5
q-1 30 4 55l-6 -2q-17 -5 -24 -5t-14 3q-25 13 51 32v0q2 6 5 11q17 35 86 116q15 18 63.5 45t81.5 36q20 5 84 3q46 -1 60.5 -4.5t45.5 -22.5q42 -26 45 -31q2 -3 -4 -7.5t-16 -9t-22 -9t-23.5 -7t-19.5 -2.5q-24 1 -61 18t-81.5 18t-69.5 -14q-27 -16 -62 -55.5t-40 -58.5
q-2 -5 -3 -11q69 11 98 9q32 -2 71 -8t69 -3q33 2 41 -4q6 -5 -3 -10.5t-52 -23.5q-35 -14 -66.5 -15.5t-80.5 9.5q-38 8 -81 8v-21v-27q70 11 99 9q32 -2 71 -8t69 -3q33 2 41 -4q6 -5 -3 -10.5t-52 -23.5q-35 -14 -66.5 -15.5t-80.5 9.5q-34 7 -73 8z" />
    <glyph glyph-name="Scaron" unicode="&#x160;" horiz-adv-x="432" 
d="M37 372q0 47 43 101t79 66q22 7 98 5l75 -1l28 -27q26 -26 35.5 -44.5t13.5 -56.5q4 -37 -5 -47t-48 -11q-25 -1 -33.5 1.5t-17.5 13.5q-13 17 -13 47q0 35 -19 59.5t-44 31t-51 -10.5t-37 -57q-10 -32 -6.5 -52.5t22.5 -42.5q12 -15 25 -20t57 -12q56 -10 87 -26t66 -55
q24 -26 29 -37t5 -32q0 -33 -16 -66.5t-35 -39.5q-9 -3 -41.5 -22.5t-56.5 -22.5l-89 -11q0 -1 -2 -1q-12 -2 -22.5 -3t-34 0t-42.5 8t-39 25.5t-31 46.5q-7 18 5 50q7 20 15 29t27 18q30 15 42 15q13 0 16 -11t-7 -22q-11 -11 -7.5 -26.5t24.5 -45.5q23 -34 61.5 -45
t69.5 8q19 12 45 56t21 59q-4 12 -41 43l-37 30h-63q-44 0 -57 2.5t-31 16.5q-20 15 -41.5 55t-21.5 61zM205 567l-58 106l33 1l52 -55l56 53l29 1l-57 -106h-55z" />
    <glyph glyph-name="scaron" unicode="&#x161;" horiz-adv-x="304" 
d="M124 285q69 7 102.5 1.5t56.5 -27.5q17 -17 18 -26.5t-14 -19.5t-42 -3l-44 11q-17 4 -35 21q-15 13 -28.5 12.5t-13.5 -14.5q0 -13 22.5 -28.5t50.5 -23.5q24 -6 55.5 -20.5t43.5 -24.5q11 -9 12 -26t-9 -34q-8 -16 -55.5 -32.5t-96.5 -20.5q-35 -3 -47 -0.5t-32 14.5
q-34 22 -42.5 53t17.5 41q17 6 34.5 4t20.5 -11q5 -18 12.5 -26t28.5 -20q69 -39 69 18q0 12 -7.5 18.5t-36.5 20.5q-28 13 -55 19t-40 7.5t-23 9.5t-14 27q-3 17 -1.5 24.5t11.5 18.5q30 33 82 37zM136 316l-58 106l33 1l52 -55l56 53l29 1l-57 -106h-55z" />
    <glyph glyph-name="Dcroat" unicode="&#x110;" horiz-adv-x="602" 
d="M214 541q-62 32 -101 42l-67 19q-29 7 -33 12q-3 3 5 13t21.5 21t24.5 16q32 15 81 2t147 -62q39 -20 61 -35q5 -3 11 -8q32 -3 71 -10q43 -9 76 -5q36 3 45 -5q8 -8 -2 -16t-58 -33q-16 -8 -30 -13l26 -26q19 -23 52 -76q47 -74 50 -142t-40 -112q-37 -38 -70.5 -55.5
t-94.5 -31.5q-24 -5 -84.5 -0.5t-68.5 12.5q-7 7 -22 7q-12 0 -45 34t-43 55q-24 53 -27.5 106t13.5 84q18 31 73 65.5t106 45.5q39 9 39 -3t-39 -25q-29 -10 -60 -40q-24 -24 -32 -45t-8 -61q0 -33 39.5 -93.5t72.5 -77.5q22 -11 26 -18q3 -5 31.5 -7t65.5 5t55 27
q11 11 13 24t2 55q0 44 -4.5 61.5t-25.5 61.5q-25 53 -38 69.5t-16 23.5q-3 9 -18 19.5l-39 26t-40 30.5q-6 6 -14 12q-31 5 -65 6q-51 0 -81 -11q-19 -7 -27 -7.5t-16 4.5q-27 19 57 46q19 6 45 13z" />
    <glyph glyph-name="dcroat" unicode="&#x111;" horiz-adv-x="351" 
d="M212 260q-47 21 -60.5 20.5t-35.5 -23.5q-19 -20 -24.5 -35.5t3.5 -21.5q6 -4 10 -32q3 -25 16.5 -39.5t54.5 -37.5q26 -15 37 -18t21 1q27 12 25 92q-2 51 -9 65.5t-38 28.5zM11 383q-19 7 -40 14q-49 14 -68 30q-13 12 -14 16t9 14q16 18 38.5 23t51.5 -3t46 -15
t46 -21l59 -29h7q27 -3 61.5 -11.5t60.5 -4.5q29 3 36 -5q6 -8 -2 -16t-46 -33q-4 -2 -7 -5l27 -26q81 -82 73 -132q-3 -23 -25.5 -67.5t-31.5 -47.5q-14 -4 -37.5 -12.5t-36 -12.5t-30 -8t-31.5 -3.5t-28 5.5q-61 21 -87 48.5t-26 71.5q0 34 10 54q6 14 42 44.5t58 41.5
q40 20 -14 44q-1 1 -3 1q-28 7 -58 8q-41 0 -64 -11q-15 -7 -21.5 -7.5t-12.5 4.5q-22 19 45 46q6 3 13 5z" />
    <glyph glyph-name="Ccaron" unicode="&#x10c;" 
d="M258 519q20 5 84 3q46 -1 60.5 -4.5t45.5 -22.5q42 -26 45 -31q2 -3 -4 -7.5t-16 -9t-22 -9t-23.5 -7t-19.5 -2.5q-24 1 -61 18t-81.5 18t-69.5 -14q-27 -16 -62 -55.5t-40 -58.5q-7 -23 -7 -70.5t7 -70.5q6 -24 32 -51q42 -46 115 -56.5t136 20.5q40 20 59 33
q15 11 30 13t21 -7q4 -7 -33 -44t-62 -50q-23 -12 -99.5 -18.5t-108.5 0.5q-7 1 -21 4t-19 4t-15 5t-20 10t-24 17q-41 29 -56.5 61.5t-17 90.5t15.5 93.5t86 116.5q15 18 63.5 45t81.5 36zM286 566l-58 106l33 1l52 -55l56 53l29 1l-57 -106h-55z" />
    <glyph glyph-name="ccaron" unicode="&#x10d;" horiz-adv-x="355" 
d="M132 311q34 18 138 25q14 1 45 -27.5t32 -46.5t-27 -36q-27 -16 -41.5 -15.5t-31.5 18.5t-50.5 33t-58.5 15q-17 0 -27.5 -5.5t-29.5 -23.5l-30 -29l10 -29q12 -34 20 -44t32 -22q23 -12 46.5 -16.5t42 -3.5t35.5 5t29.5 9t21.5 8t13.5 2t4.5 -9q0 -14 -56 -47.5
t-92 -40.5q-38 -7 -96 33q-22 15 -37 52.5t-13 68.5q4 47 23 67t97 59zM187 362l-58 84l33 1l52 -43l56 42h29l-57 -84h-55z" />
    <glyph glyph-name="Cacute" unicode="&#x106;" 
d="M258 519q20 5 84 3q46 -1 60.5 -4.5t45.5 -22.5q42 -26 45 -31q2 -3 -4 -7.5t-16 -9t-22 -9t-23.5 -7t-19.5 -2.5q-24 1 -61 18t-81.5 18t-69.5 -14q-27 -16 -62 -55.5t-40 -58.5q-7 -23 -7 -70.5t7 -70.5q6 -24 32 -51q42 -46 115 -56.5t136 20.5q40 20 59 33
q15 11 30 13t21 -7q4 -7 -33 -44t-62 -50q-23 -12 -99.5 -18.5t-108.5 0.5q-7 1 -21 4t-19 4t-15 5t-20 10t-24 17q-41 29 -56.5 61.5t-17 90.5t15.5 93.5t86 116.5q15 18 63.5 45t81.5 36zM251 567l48 103h81l-83 -101z" />
    <glyph glyph-name="cacute" unicode="&#x107;" horiz-adv-x="355" 
d="M132 311q34 18 138 25q14 1 45 -27.5t32 -46.5t-27 -36q-27 -16 -41.5 -15.5t-31.5 18.5t-50.5 33t-58.5 15q-17 0 -27.5 -5.5t-29.5 -23.5l-30 -29l10 -29q12 -34 20 -44t32 -22q23 -12 46.5 -16.5t42 -3.5t35.5 5t29.5 9t21.5 8t13.5 2t4.5 -9q0 -14 -56 -47.5
t-92 -40.5q-38 -7 -96 33q-22 15 -37 52.5t-13 68.5q4 47 23 67t97 59zM147 358l48 78h81l-83 -76z" />
    <glyph glyph-name="Zcaron" unicode="&#x17d;" horiz-adv-x="486" 
d="M151 503q36 20 98 12.5t110 -36.5q15 -9 48.5 -14l58.5 -8.5t25 -9.5q0 -5 -6 -8.5t-19 -9t-23 -13.5q-18 -12 -34 -12q-35 0 -61 -52q-15 -31 -93 -110l-78 -80l34 -17q26 -13 56 -33t66 -41l47 -26l89 1q30 0 48 0.5t27 -1t11 -3.5t2 -6q-2 -11 -53 -33
q-32 -14 -51 -18t-53 -4q-45 0 -75 8t-86 35q-87 42 -126.5 54t-81.5 9q-32 -2 -32 6q0 9 58 46q38 25 56 40q13 11 29.5 19t39 24t58.5 52q129 130 67 130q-16 0 -69 24q-36 17 -51 20t-43 0q-23 -3 -40.5 -9.5t-22.5 -11.5t-12 -7.5t-9 3.5q-17 17 67 67zM276 539l-58 106
l33 1l52 -55l56 53l29 1l-57 -106h-55z" />
    <glyph glyph-name="zcaron" unicode="&#x17e;" horiz-adv-x="449" 
d="M151 328q31 10 81.5 7t73.5 -17q15 -9 30.5 -11.5t52.5 -1.5q38 1 51 -3t3.5 -13t-43 -26t-73 -52l-72.5 -67t-47 -41q-19 -10 -19 -17t76 -44l75 -37l63 1q67 2 62 -8q-3 -5 -21 -11q-14 -5 -33.5 -15t-37 -14t-52.5 -4q-46 0 -84.5 10.5t-60 23t-48.5 23.5t-51 11
q-71 2 -73 17.5t67 39.5q51 17 106 56t84.5 70t21.5 33l-64.5 19.5t-41 13t-25.5 8t-19 3t-22 -1.5q-29 -5 -29 2q0 8 23 23t46 23zM265 370l-58 106l33 1l52 -55l56 53l29 1l-57 -106h-55z" />
    <glyph glyph-name="quotedbl" unicode="&#x22;" horiz-adv-x="233" 
d="M28 634q57 38 73 -38q8 -39 -43 -85q-33 -30 -50 -25q-10 3 5 24q11 14 10 37.5t-13.5 36.5t-8.5 24t27 26zM157 634q57 38 73 -38q8 -39 -43 -85q-33 -30 -50 -25q-10 3 5 24q11 14 10 37.5t-13.5 36.5t-8.5 24t27 26z" />
  </font>
</defs>
</svg>
